<svg xmlns="http://www.w3.org/2000/svg" version="1.1" xmlns:xlink="http://www.w3.org/1999/xlink" xmlns:svgjs="http://svgjs.dev/svgjs" width="1500" height="1500" viewBox="0 0 1500 1500"><rect width="1500" height="1500" fill="#ffffff"></rect><g transform="matrix(0.6666666666666666,0,0,0.6666666666666666,249.3940346673882,591.4870536947695)"><svg viewBox="0 0 396 126" data-background-color="#ffffff" preserveAspectRatio="xMidYMid meet" height="477" width="1500" xmlns="http://www.w3.org/2000/svg" xmlns:xlink="http://www.w3.org/1999/xlink"><g id="tight-bounds" transform="matrix(1,0,0,1,0.239962271714262,-0.19298353943699453)"><svg viewBox="0 0 395.52 126.38589162230252" height="126.38589162230252" width="395.52"><g><svg viewBox="0 0 694.9469656325591 222.0658674193078" height="126.38589162230252" width="395.52"><g transform="matrix(1,0,0,1,0,29.109000089494103)"><svg viewBox="0 0 395.52 163.8478672403196" height="163.8478672403196" width="395.52"><g id="textblocktransform"><svg viewBox="0 0 395.52 163.8478672403196" height="163.8478672403196" width="395.52" id="textblock"><g><svg viewBox="0 0 395.52 163.8478672403196" height="163.8478672403196" width="395.52"><g transform="matrix(1,0,0,1,0,0)"><svg width="395.52" viewBox="1.5 -33.7 81.34 33.7" height="163.8478672403196" data-palette-color="#6b7280"><g class="wordmark-text-0" data-fill-palette-color="primary" id="text-0"><path d="M21.3-28.75L23.95-33.7 27.5-33.7 16-12.6 16 0 12.9 0 12.9-12.6 1.5-33.7 5.05-33.7 7.7-28.75 14.45-15.75Q14.85-16.7 21.3-28.75L21.3-28.75ZM36.1-15.4L36.1-2.85 51.25-2.85 51.25 0 33 0 33-33.7 50.95-33.7 50.95-30.85 36.1-30.85 36.1-18.25 49.2-18.25 49.2-15.4 36.1-15.4ZM60.6 0L57.5 0 57.5-33.7 61.75-33.7 70.34-19.45 79.84-3.65Q79.75-8.85 79.75-19.4L79.75-19.4 79.75-33.7 82.84-33.7 82.84 0 78.59 0 70.05-14.15 60.5-30.05Q60.6-24.65 60.6-14.25L60.6-14.25 60.6 0Z" fill="#6b7280" data-fill-palette-color="primary"></path></g></svg></g></svg></g></svg></g></svg></g><g transform="matrix(1,0,0,1,472.88109821325133,0)"><svg viewBox="0 0 222.0658674193078 222.0658674193078" height="222.0658674193078" width="222.0658674193078"><g><svg></svg></g><g id="icon-0"><svg viewBox="0 0 222.0658674193078 222.0658674193078" height="222.0658674193078" width="222.0658674193078"><g><path d="M0 111.033c0-61.322 49.711-111.033 111.033-111.033 61.322 0 111.033 49.711 111.033 111.033 0 61.322-49.711 111.033-111.033 111.033-61.322 0-111.033-49.711-111.033-111.033zM111.033 207.29c53.161 0 96.257-43.096 96.257-96.257 0-53.161-43.096-96.257-96.257-96.257-53.161 0-96.257 43.096-96.257 96.257 0 53.161 43.096 96.257 96.257 96.257z" data-fill-palette-color="accent" fill="#6b7280" stroke="transparent"></path></g><g transform="matrix(1,0,0,1,64.60949750918975,51.61093537305979)"><svg viewBox="0 0 92.8468724009283 118.84399667318823" height="118.84399667318823" width="92.8468724009283"><g><svg xmlns="http://www.w3.org/2000/svg" version="1.1" data-icon="yen" data-container-transform="translate(14)" viewBox="14 0 100 128" x="0" y="0" height="118.84399667318823" width="92.8468724009283" class="icon-cg-0" data-fill-palette-color="accent" id="cg-0"><path d="M0 0l39.875 58h-37.875v8h42v8h-42v8h42v46h12v-46h42v-8h-42v-8h42v-8h-37.875l39.875-58h-12l-38 56-38-56h-12z" transform="translate(14)" fill="#6b7280" data-fill-palette-color="accent"></path></svg></g></svg></g></svg></g></svg></g></svg></g><defs></defs></svg><rect width="395.52" height="126.38589162230252" fill="none" stroke="none" visibility="hidden"></rect></g></svg></g></svg>